<svg version="1.0" xmlns="http://www.w3.org/2000/svg"
 width="512.000000pt" height="512.000000pt" viewBox="0 0 512.000000 512.000000"
 preserveAspectRatio="xMidYMid meet">

<g transform="translate(0.000000,512.000000) scale(0.100000,-0.100000)"
fill="#000000" stroke="none">
<path d="M2310 4559 c-810 -104 -1497 -708 -1700 -1493 -49 -192 -63 -323 -57
-556 7 -299 49 -494 160 -753 284 -660 897 -1113 1621 -1198 144 -17 452 -6
593 20 443 83 825 299 1136 640 623 686 676 1756 126 2526 -316 442 -835 746
-1389 815 -98 12 -395 11 -490 -1z m604 -1304 c18 -9 168 -152 333 -318 260
-261 302 -307 308 -339 16 -87 16 -87 -307 -418 -313 -323 -334 -339 -401
-326 -39 8 -93 49 -112 86 -22 42 -19 102 7 136 11 16 84 93 162 172 l141 142
-660 0 c-423 0 -673 4 -697 10 -75 21 -128 87 -128 160 0 73 53 139 128 160
24 6 272 10 692 10 l655 0 -152 153 c-166 165 -189 200 -172 260 18 68 86 126
147 127 13 0 38 -7 56 -15z"/>
</g>
</svg>
