<svg version="1.0" xmlns="http://www.w3.org/2000/svg"
 viewBox="0 0 512.000000 512.000000"
 preserveAspectRatio="xMidYMid meet">

<g transform="translate(0.000000,512.000000) scale(0.100000,-0.100000)"
fill="#000000" stroke="none">
<path d="M341 4464 c-125 -33 -238 -130 -299 -254 -37 -74 -37 -76 -37 -200 0
-120 1 -128 32 -192 17 -37 53 -91 80 -119 64 -69 2202 -1497 2284 -1525 75
-26 243 -26 318 0 82 28 2220 1456 2284 1525 27 28 63 82 80 119 27 58 32 80
35 169 4 84 1 112 -17 166 -52 155 -175 272 -326 312 -52 13 -306 15 -2220 14
-1858 0 -2168 -2 -2214 -15z"/>
<path d="M2 2198 l3 -1213 37 -75 c42 -85 116 -166 193 -210 112 -64 -44 -60
2325 -60 1908 0 2163 2 2215 15 150 40 274 157 325 309 20 61 20 77 18 1254
l-3 1192 -1080 -721 c-594 -396 -1105 -733 -1135 -748 -133 -69 -319 -97 -465
-72 -161 28 -160 28 -1320 801 -599 399 -1096 730 -1103 734 -10 6 -12 -229
-10 -1206z"/>
</g>
</svg>
