<?xml version="1.0" standalone="no"?>
<!DOCTYPE svg PUBLIC "-//W3C//DTD SVG 20010904//EN"
 "http://www.w3.org/TR/2001/REC-SVG-20010904/DTD/svg10.dtd">
<svg version="1.0" xmlns="http://www.w3.org/2000/svg"
 width="512.000000pt" height="512.000000pt" viewBox="0 0 512.000000 512.000000"
 preserveAspectRatio="xMidYMid meet">
<metadata>
Created by potrace 1.16, written by Peter Selinger 2001-2019
</metadata>
<g transform="translate(0.000000,512.000000) scale(0.100000,-0.100000)"
fill="#000000" stroke="none">
<path d="M1690 4085 c-386 -570 -707 -1049 -713 -1064 -12 -34 -3 -76 23 -98
10 -9 330 -180 711 -380 553 -292 697 -364 723 -361 l31 3 0 1465 0 1465 -36
3 -36 3 -703 -1036z"/>
<path d="M2655 5108 c-3 -7 -4 -668 -3 -1468 l3 -1455 32 -3 c25 -3 167 68
722 360 380 200 699 371 710 380 27 23 37 65 24 99 -6 16 -327 494 -713 1064
l-702 1035 -34 0 c-19 0 -37 -6 -39 -12z"/>
<path d="M999 2491 c-37 -37 -39 -88 -6 -125 12 -14 362 -203 777 -422 575
-301 763 -396 790 -396 27 0 212 92 790 396 415 218 765 408 778 422 50 56 6
154 -69 154 -22 0 -242 -111 -765 -386 l-734 -385 -733 385 c-524 276 -743
386 -766 386 -23 0 -42 -9 -62 -29z"/>
<path d="M1043 1945 c-32 -23 -47 -76 -31 -113 7 -16 321 -436 698 -931 l684
-902 36 3 35 3 3 616 c2 504 0 618 -11 628 -8 6 -309 168 -671 361 -679 362
-695 369 -743 335z"/>
<path d="M3355 1622 c-347 -185 -647 -347 -668 -359 l-37 -22 2 -618 3 -618
35 -3 36 -3 684 901 c377 496 691 915 698 932 16 37 1 90 -31 113 -50 35 -67
27 -722 -323z"/>
</g>
</svg>
