<svg version="1.0" xmlns="http://www.w3.org/2000/svg"
 viewBox="0 0 512.000000 512.000000"
 preserveAspectRatio="xMidYMid meet">

<g transform="translate(0.000000,512.000000) scale(0.100000,-0.100000)"
fill="#000000" stroke="none">
<path d="M2326 5104 c-160 -29 -341 -103 -491 -202 -90 -59 -278 -247 -338
-338 -100 -153 -172 -330 -202 -498 -12 -70 -15 -171 -15 -477 l0 -389 -124 0
c-94 0 -139 -5 -185 -19 -147 -46 -272 -172 -315 -320 -14 -49 -16 -189 -16
-1262 0 -1157 1 -1210 19 -1268 46 -147 172 -272 320 -315 49 -14 217 -16
1581 -16 1364 0 1532 2 1581 16 148 43 274 168 320 315 18 58 19 111 19 1268
0 1073 -2 1213 -16 1262 -43 148 -168 274 -315 320 -46 14 -91 19 -185 19
l-124 0 0 389 c0 428 -6 491 -61 656 -67 199 -158 345 -313 501 -198 197 -417
313 -683 359 -108 19 -350 18 -457 -1z m458 -449 c294 -85 501 -292 593 -592
27 -88 27 -88 31 -475 l4 -388 -852 0 -852 0 4 388 c4 387 4 387 31 475 103
334 363 564 700 618 89 14 244 2 341 -26z m-102 -2335 c219 -67 345 -301 280
-517 -25 -82 -82 -165 -146 -212 l-46 -35 0 -254 c0 -278 -5 -309 -53 -368
-81 -97 -233 -97 -314 0 -49 59 -53 90 -53 368 l0 255 -42 29 c-61 42 -124
134 -149 216 -96 316 207 616 523 518z"/>
</g>
</svg>
