
<svg version="1.0" xmlns="http://www.w3.org/2000/svg"
 viewBox="0 0 512.000000 512.000000"
 preserveAspectRatio="xMidYMid meet">

<g transform="translate(0.000000,512.000000) scale(0.100000,-0.100000)"
fill="#000000" stroke="none">
<path d="M2450 5039 c-203 -31 -422 -155 -547 -310 -124 -153 -182 -294 -203
-494 -11 -108 -3 -157 30 -175 10 -6 86 -10 168 -10 180 0 186 3 197 115 13
139 54 231 145 328 102 110 233 164 374 154 216 -14 396 -163 451 -372 11 -43
15 -110 15 -242 l0 -183 -727 0 c-710 0 -729 -1 -773 -21 -54 -25 -75 -42
-109 -94 l-26 -40 -3 -713 c-3 -710 -2 -712 19 -762 25 -59 70 -101 130 -124
40 -15 131 -16 1005 -14 l961 3 49 30 c30 19 60 49 79 79 l30 49 3 701 c2 466
0 713 -7 737 -25 86 -124 169 -203 169 l-26 0 -4 218 c-4 180 -8 230 -26 294
-89 326 -338 578 -651 659 -90 24 -259 32 -351 18z m189 -1749 c126 -36 195
-180 142 -295 -10 -22 -35 -56 -55 -74 l-36 -35 0 -173 0 -173 -29 -32 c-25
-28 -36 -33 -75 -33 -36 0 -51 6 -73 28 l-28 27 -3 177 -3 177 -40 44 c-49 53
-69 98 -69 154 1 138 140 245 269 208z"/>
<path d="M432 1407 c-20 -21 -22 -34 -22 -135 0 -62 -3 -112 -6 -112 -3 0 -44
22 -91 50 -90 53 -132 62 -171 34 -16 -11 -22 -25 -22 -54 0 -47 10 -58 111
-116 43 -25 81 -49 84 -54 3 -5 -35 -32 -85 -60 -50 -28 -95 -60 -100 -70 -17
-31 -12 -78 11 -101 31 -31 78 -21 179 39 l85 50 3 -118 c3 -115 4 -120 29
-140 33 -26 63 -26 96 0 25 20 26 25 29 140 l3 118 95 -54 c52 -30 106 -54
121 -54 43 0 73 31 72 74 -1 48 -10 57 -114 117 -49 28 -87 55 -84 59 2 4 45
30 94 59 111 64 133 106 83 164 -27 31 -79 21 -172 -33 -47 -27 -88 -50 -92
-50 -5 0 -8 52 -8 115 0 102 -2 117 -20 135 -28 28 -81 26 -108 -3z"/>
<path d="M1811 1404 c-18 -23 -21 -41 -21 -135 0 -60 -2 -109 -4 -109 -2 0
-42 23 -89 50 -95 56 -143 64 -177 30 -24 -24 -26 -67 -5 -97 8 -12 56 -45
106 -74 l91 -52 -83 -47 c-46 -26 -94 -56 -106 -68 -31 -29 -30 -76 3 -109 35
-35 68 -28 175 35 l84 50 5 -111 c3 -62 9 -119 14 -129 13 -28 61 -42 95 -28
40 16 51 53 51 171 l0 98 93 -54 c104 -61 136 -67 172 -30 53 52 25 99 -104
174 l-83 48 98 59 c110 66 127 89 104 143 -8 21 -22 34 -44 40 -37 10 -61 1
-161 -57 l-70 -41 -5 113 c-6 133 -18 156 -81 156 -29 0 -42 -6 -58 -26z"/>
<path d="M3194 1409 c-16 -17 -20 -42 -24 -135 l-5 -113 -70 41 c-100 58 -124
67 -161 57 -22 -6 -36 -19 -44 -40 -23 -54 -6 -77 104 -143 l98 -59 -83 -48
c-129 -75 -157 -122 -104 -174 36 -37 68 -31 172 30 l93 54 0 -98 c0 -118 11
-155 51 -171 34 -14 82 0 95 28 5 10 11 67 14 129 l5 111 84 -50 c107 -63 140
-70 175 -35 28 28 34 72 14 100 -7 10 -55 42 -107 71 l-93 54 78 44 c43 23 91
55 106 70 46 44 35 107 -24 127 -35 12 -42 10 -170 -63 l-68 -38 0 110 c0 95
-3 113 -21 136 -27 34 -86 37 -115 5z"/>
<path d="M4580 1410 c-18 -18 -20 -33 -20 -135 0 -63 -2 -115 -5 -115 -2 0
-48 24 -102 54 -74 42 -105 54 -125 49 -31 -6 -59 -33 -60 -59 -4 -52 11 -70
102 -123 50 -30 92 -57 95 -60 2 -4 -26 -25 -63 -46 -133 -76 -157 -108 -126
-166 28 -55 66 -52 184 16 l95 55 3 -119 c3 -134 13 -155 78 -155 59 0 68 19
74 154 l5 118 95 -54 c78 -46 101 -54 129 -50 39 6 60 30 61 69 0 46 -15 63
-110 118 -49 28 -90 54 -90 58 0 3 33 24 72 46 108 60 128 80 128 124 0 25 -7
44 -19 55 -35 32 -79 23 -173 -32 -48 -29 -89 -52 -92 -52 -3 0 -6 52 -6 115
0 132 -11 155 -75 155 -22 0 -43 -8 -55 -20z"/>
<path d="M16 304 c-25 -24 -23 -195 2 -217 17 -15 64 -17 470 -17 536 0 492
-11 492 125 0 136 44 125 -494 125 -400 0 -456 -2 -470 -16z"/>
<path d="M1397 302 c-26 -28 -24 -192 1 -215 17 -15 64 -17 468 -17 391 0 452
2 472 16 20 14 22 23 22 108 0 77 -3 96 -18 109 -17 15 -64 17 -474 17 -428 0
-456 -1 -471 -18z"/>
<path d="M2777 302 c-13 -14 -17 -39 -17 -110 0 -83 2 -92 22 -106 20 -14 81
-16 474 -16 424 0 452 1 467 18 26 28 24 192 -1 215 -17 15 -64 17 -474 17
-428 0 -456 -1 -471 -18z"/>
<path d="M4160 300 c-17 -17 -20 -33 -20 -105 0 -136 -44 -125 493 -125 427 0
455 1 470 18 24 26 24 193 1 216 -14 14 -70 16 -470 16 -441 0 -455 -1 -474
-20z"/>
</g>
</svg>
