<svg version="1.0" xmlns="http://www.w3.org/2000/svg"
 width="512.000000pt" height="512.000000pt" viewBox="0 0 512.000000 512.000000"
 preserveAspectRatio="xMidYMid meet">

<g transform="translate(0.000000,512.000000) scale(0.100000,-0.100000)"
fill="#000000" stroke="none">
<path d="M1740 4790 c-298 -63 -556 -256 -700 -523 l-40 -74 -58 -13 c-469
-104 -838 -482 -927 -951 -20 -107 -20 -331 0 -438 68 -354 298 -666 618 -836
97 -52 263 -109 363 -126 l70 -11 -7 -52 c-34 -251 145 -521 421 -633 195 -78
449 -70 681 22 110 44 236 114 333 184 l69 50 51 -30 c194 -114 359 -155 593
-146 151 5 239 24 366 77 207 86 414 279 518 482 28 55 30 57 86 68 32 7 96
26 143 42 408 144 713 500 785 916 19 109 19 316 0 424 -80 462 -468 862 -927
957 l-57 12 -40 75 c-136 251 -377 440 -659 516 -117 31 -346 36 -472 10 -112
-23 -228 -67 -322 -123 l-67 -40 -78 46 c-96 55 -213 99 -323 119 -112 22
-310 20 -420 -4z m288 -1203 c18 -10 42 -32 52 -50 22 -36 26 -106 9 -140 -6
-12 -92 -104 -191 -203 l-180 -182 138 -4 c156 -5 188 -15 223 -71 42 -69 21
-157 -49 -200 -34 -21 -43 -22 -370 -22 -373 0 -380 1 -420 68 -22 36 -26 106
-9 140 6 12 92 104 191 203 l180 182 -138 4 c-155 4 -188 15 -225 74 -38 62
-15 164 43 195 46 25 88 28 398 26 282 -2 318 -4 348 -20z m1500 -300 c18 -10
42 -32 52 -50 22 -36 26 -106 9 -140 -6 -12 -160 -171 -342 -354 l-330 -332
289 -3 c322 -3 332 -5 373 -71 42 -69 21 -157 -49 -200 -35 -22 -39 -22 -520
-22 -539 0 -528 -1 -570 68 -22 36 -26 106 -9 140 6 12 160 171 342 354 l330
332 -289 3 c-268 3 -291 4 -322 23 -46 28 -72 73 -72 126 0 73 40 121 115 140
17 4 239 7 495 6 427 -2 468 -3 498 -20z"/>
<path d="M611 1191 c-120 -45 -207 -124 -264 -240 -31 -64 -32 -71 -32 -191 0
-122 1 -127 34 -195 45 -92 124 -171 216 -216 68 -33 73 -34 195 -34 122 0
127 1 195 34 92 45 171 124 216 216 33 68 34 73 34 195 0 122 -1 127 -34 195
-45 92 -124 171 -216 215 -65 32 -79 35 -180 37 -90 3 -120 0 -164 -16z"/>
</g>
</svg>
