<svg width="20" height="20" viewBox="0 0 20 20" fill="none" xmlns="http://www.w3.org/2000/svg">
<path d="M17.5 6.66602V15.8327C17.5 16.0537 17.4122 16.2657 17.2559 16.4219C17.0997 16.5782 16.8877 16.666 16.6667 16.666H14.1667" stroke="#EB003C" stroke-width="1.66667" stroke-linecap="round" stroke-linejoin="round"/>
<path d="M5.83333 6.66732H10.8333M5.83333 10.0007H10.8333M2.5 4.16732V12.5007C2.5 12.7217 2.5878 12.9336 2.74408 13.0899C2.90036 13.2462 3.11232 13.334 3.33333 13.334H6.66667L10.8333 15.834V13.334H13.3333C13.5543 13.334 13.7663 13.2462 13.9226 13.0899C14.0789 12.9336 14.1667 12.7217 14.1667 12.5007V4.16732C14.1667 3.9463 14.0789 3.73434 13.9226 3.57806C13.7663 3.42178 13.5543 3.33398 13.3333 3.33398H3.33333C3.11232 3.33398 2.90036 3.42178 2.74408 3.57806C2.5878 3.73434 2.5 3.9463 2.5 4.16732Z" stroke="#EB003C" stroke-width="1.66667" stroke-linecap="round" stroke-linejoin="round"/>
</svg>
