<svg width="24" height="40" viewBox="0 0 24 40" fill="none" xmlns="http://www.w3.org/2000/svg">
<path d="M15 16.3333V20.5C15 21.8261 14.4732 23.0979 13.5355 24.0355C12.5979 24.9732 11.3261 25.5 10 25.5C8.67392 25.5 7.40215 24.9732 6.46447 24.0355C5.52678 23.0979 5 21.8261 5 20.5V13.8333C5 12.9493 5.35119 12.1014 5.97631 11.4763C6.60143 10.8512 7.44928 10.5 8.33333 10.5C9.21739 10.5 10.0652 10.8512 10.6904 11.4763C11.3155 12.1014 11.6667 12.9493 11.6667 13.8333V20.5C11.6667 20.942 11.4911 21.366 11.1785 21.6785C10.866 21.9911 10.442 22.1667 10 22.1667C9.55797 22.1667 9.13405 21.9911 8.82149 21.6785C8.50893 21.366 8.33333 20.942 8.33333 20.5V13.8333" stroke="#EB003C" stroke-width="1.66667" stroke-linecap="round" stroke-linejoin="round"/>
</svg>
