<svg width="24" height="40" viewBox="0 0 24 40" fill="none" xmlns="http://www.w3.org/2000/svg">
<path d="M12 18.3333H16.1667V21.6667H12V23.3333L8.15833 20.6833C8.04831 20.6065 7.95846 20.5043 7.89641 20.3853C7.83437 20.2664 7.80197 20.1342 7.80197 20C7.80197 19.8658 7.83437 19.7336 7.89641 19.6147C7.95846 19.4957 8.04831 19.3935 8.15833 19.3167L12 16.6667V18.3333ZM18.6667 12.5H5.33333C5.11232 12.5 4.90036 12.5878 4.74408 12.7441C4.5878 12.9004 4.5 13.1123 4.5 13.3333V26.6667C4.5 26.8877 4.5878 27.0996 4.74408 27.2559C4.90036 27.4122 5.11232 27.5 5.33333 27.5H18.6667C18.8877 27.5 19.0996 27.4122 19.2559 27.2559C19.4122 27.0996 19.5 26.8877 19.5 26.6667V13.3333C19.5 13.1123 19.4122 12.9004 19.2559 12.7441C19.0996 12.5878 18.8877 12.5 18.6667 12.5Z" stroke="#EB003C" stroke-width="1.875" stroke-linecap="round" stroke-linejoin="round"/>
</svg>
