<svg width="14" height="14" viewBox="0 0 14 14" fill="none" xmlns="http://www.w3.org/2000/svg">
<path d="M5.83333 8.75H7.29166C7.52373 8.75 7.74629 8.65781 7.91038 8.49372C8.07447 8.32962 8.16666 8.10706 8.16666 7.875C8.16666 7.64294 8.07447 7.42038 7.91038 7.25628C7.74629 7.09219 7.52373 7 7.29166 7H6.70833C6.47626 7 6.2537 6.90781 6.08961 6.74372C5.92552 6.57962 5.83333 6.35706 5.83333 6.125C5.83333 5.89294 5.92552 5.67038 6.08961 5.50628C6.2537 5.34219 6.47626 5.25 6.70833 5.25H8.16666" stroke="#EB003C" stroke-width="1.16667" stroke-linecap="round" stroke-linejoin="round"/>
<path d="M7 5.24935V4.66602M7 9.33268V8.74935" stroke="#EB003C" stroke-width="1.16667" stroke-linecap="round" stroke-linejoin="round"/>
<path d="M11.6667 6.99979C11.668 6.53517 11.5992 6.07301 11.4625 5.62895C11.2007 4.78158 10.7028 4.02636 10.0273 3.45175C9.35169 2.87715 8.52636 2.50695 7.64796 2.38452C6.76956 2.2621 5.87446 2.39251 5.06751 2.7605C4.26056 3.12848 3.57519 3.7188 3.09166 4.46229" stroke="#EB003C" stroke-width="1.16667" stroke-linecap="round" stroke-linejoin="round"/>
<path d="M2.33335 7C2.332 7.46462 2.40083 7.92677 2.53751 8.37083C2.79932 9.2182 3.29716 9.97343 3.97274 10.548C4.64832 11.1226 5.47364 11.4928 6.35205 11.6153C7.23045 11.7377 8.12555 11.6073 8.9325 11.2393C9.73944 10.8713 10.4248 10.281 10.9083 9.5375" stroke="#EB003C" stroke-width="1.16667" stroke-linecap="round" stroke-linejoin="round"/>
<path d="M11.0833 6.41602L11.6667 6.99935L12.25 6.41602" stroke="#EB003C" stroke-width="1.16667" stroke-linecap="round" stroke-linejoin="round"/>
<path d="M2.91667 7.58333L2.33333 7L1.75 7.58333" stroke="#EB003C" stroke-width="1.16667" stroke-linecap="round" stroke-linejoin="round"/>
</svg>
